<?xml version="1.0" standalone="no"?>
<!DOCTYPE svg PUBLIC "-//W3C//DTD SVG 20010904//EN"
 "http://www.w3.org/TR/2001/REC-SVG-20010904/DTD/svg10.dtd">
<svg version="1.0" xmlns="http://www.w3.org/2000/svg"
 width="500.000000pt" height="500.000000pt" viewBox="0 0 500.000000 500.000000"
 preserveAspectRatio="xMidYMid meet">
<metadata>
Created by potrace 1.11, written by Peter Selinger 2001-2013
</metadata>
<g transform="translate(0.000000,500.000000) scale(0.100000,-0.100000)"
fill="#000000" stroke="none">
<path d="M2307 4984 c-2 -2 -30 -6 -62 -9 -32 -3 -66 -7 -74 -10 -9 -2 -32 -7
-51 -10 -101 -17 -200 -48 -329 -103 -95 -40 -244 -120 -249 -133 -2 -5 -9 -9
-16 -9 -7 0 -21 -9 -31 -20 -10 -11 -22 -17 -26 -14 -5 3 -9 1 -9 -3 0 -5 -33
-34 -74 -66 -75 -59 -199 -184 -271 -272 -58 -71 -115 -153 -115 -165 0 -6 -4
-10 -9 -10 -18 0 -142 -267 -172 -370 -54 -186 -47 -367 18 -465 42 -63 126
-135 157 -135 42 0 59 -94 42 -240 -10 -95 -11 -97 -27 -117 -8 -10 -23 -34
-34 -53 -10 -19 -23 -39 -27 -45 -5 -5 -33 -44 -64 -85 -30 -41 -60 -82 -67
-91 -53 -67 -77 -122 -77 -177 0 -37 28 -88 56 -101 14 -6 49 -11 78 -11 56 0
51 4 85 -70 4 -8 9 -37 10 -65 9 -155 13 -169 57 -190 l34 -16 -20 -39 c-35
-68 -26 -96 51 -153 20 -15 23 -24 19 -75 -10 -161 4 -207 82 -283 70 -68 116
-84 238 -84 l106 1 17 -56 c18 -55 28 -76 131 -274 31 -59 56 -120 56 -135 0
-61 -86 -176 -285 -378 -71 -73 -133 -133 -137 -133 -4 0 -18 -10 -30 -23 -13
-12 -54 -43 -91 -69 -41 -29 -67 -55 -67 -66 0 -38 97 -83 167 -77 23 2 106
16 123 20 29 8 87 19 93 17 4 -1 7 3 7 8 0 5 3 9 8 8 17 -5 294 80 482 149 52
19 100 36 105 37 6 1 17 6 25 11 8 5 20 10 26 11 16 3 124 52 359 164 109 52
174 82 290 134 33 15 69 31 80 36 40 19 80 33 88 32 4 -1 7 3 7 8 0 5 3 9 8 8
4 -2 27 7 52 19 60 28 239 103 246 103 3 0 20 6 37 14 105 48 148 66 155 66 8
0 35 12 148 66 28 14 57 36 64 49 14 27 9 77 -14 127 -8 18 -26 58 -39 88 -14
30 -51 109 -83 175 -45 93 -57 129 -55 159 4 55 9 79 19 85 5 3 11 11 13 16 4
10 29 48 174 272 44 67 113 174 154 238 66 102 78 115 108 121 93 17 210 233
253 464 31 167 31 175 35 375 3 166 -8 319 -29 420 -2 11 -7 40 -11 65 -21
133 -93 361 -158 500 -22 47 -41 87 -41 90 -2 7 -99 164 -106 170 -3 3 -25 30
-50 60 -54 66 -131 143 -186 186 -47 37 -171 114 -183 114 -4 0 -22 7 -40 16
-17 9 -40 17 -49 19 -9 2 -17 4 -17 5 0 1 -7 3 -15 5 -8 2 -40 11 -70 19 -30
9 -84 18 -120 21 -36 3 -99 17 -140 30 -116 37 -250 69 -335 81 -22 3 -56 8
-75 11 -38 6 -328 12 -333 7z"/>
</g>
</svg>
